<?xml version="1.0" encoding="UTF-8" standalone="no"?>
<svg
   xmlns:dc="http://purl.org/dc/elements/1.1/"
   xmlns:cc="http://creativecommons.org/ns#"
   xmlns:rdf="http://www.w3.org/1999/02/22-rdf-syntax-ns#"
   xmlns:svg="http://www.w3.org/2000/svg"
   xmlns="http://www.w3.org/2000/svg"
   xmlns:sodipodi="http://sodipodi.sourceforge.net/DTD/sodipodi-0.dtd"
   xmlns:inkscape="http://www.inkscape.org/namespaces/inkscape"
   version="1.1"
   id="svg2"
   xml:space="preserve"
   width="1821.3333"
   height="1024"
   viewBox="0 0 1821.3333 1024"
   sodipodi:docname="raketa.ai"><metadata
     id="metadata8"><rdf:RDF><cc:Work
         rdf:about=""><dc:format>image/svg+xml</dc:format><dc:type
           rdf:resource="http://purl.org/dc/dcmitype/StillImage" /></cc:Work></rdf:RDF></metadata><defs
     id="defs6"><clipPath
       clipPathUnits="userSpaceOnUse"
       id="clipPath18"><path
         d="M 0,768 H 1366 V 0 H 0 Z"
         id="path16" /></clipPath></defs><sodipodi:namedview
     pagecolor="#ffffff"
     bordercolor="#666666"
     borderopacity="1"
     objecttolerance="10"
     gridtolerance="10"
     guidetolerance="10"
     inkscape:pageopacity="0"
     inkscape:pageshadow="2"
     inkscape:window-width="640"
     inkscape:window-height="480"
     id="namedview4" /><g
     id="g10"
     inkscape:groupmode="layer"
     inkscape:label="raketa"
     transform="matrix(1.3333333,0,0,-1.3333333,0,1024)"><g
       id="g12"><g
         id="g14"
         clip-path="url(#clipPath18)"><g
           id="g20"
           transform="translate(734.8584,219.1436)"><path
             d="M 0,0 C 0,-47.243 -28.284,-85.175 -51.399,-85.175 -74.514,-85.175 -105,-47.243 -105,0 c 0,47.244 30.486,85.909 53.601,85.909 C -28.284,85.909 0,47.244 0,0"
             style="fill:#f4c83b;fill-opacity:1;fill-rule:nonzero;stroke:none"
             id="path22" /></g><g
           id="g24"
           transform="translate(717.6973,219.5605)"><path
             d="m 0,0 c 0,-32.452 -19.429,-58.508 -35.307,-58.508 -15.878,0 -36.819,26.056 -36.819,58.508 0,32.453 20.941,59.013 36.819,59.013 C -19.429,59.013 0,32.453 0,0"
             style="fill:#f26b3d;fill-opacity:1;fill-rule:nonzero;stroke:none"
             id="path26" /></g><g
           id="g28"
           transform="translate(578.5439,342.0947)"><path
             d="m 0,0 c -36.191,-52.528 -52.234,-115.133 -32.152,-115.973 13.442,-0.561 84.75,-26.069 91.928,81.508 C 64.023,29.183 105.392,89.593 87.58,82.827 61.598,72.958 29.598,42.958 0,0"
             style="fill:#b4bac1;fill-opacity:1;fill-rule:nonzero;stroke:none"
             id="path30" /></g><g
           id="g32"
           transform="translate(788.4561,342.0947)"><path
             d="m 0,0 c 36.191,-52.528 52.234,-115.133 32.152,-115.973 -13.442,-0.561 -84.75,-26.069 -91.928,81.508 C -64.022,29.183 -105.392,89.593 -87.579,82.827 -61.598,72.958 -29.598,42.958 0,0"
             style="fill:#b4bac1;fill-opacity:1;fill-rule:nonzero;stroke:none"
             id="path34" /></g><g
           id="g36"
           transform="translate(679.6387,633.0312)"><path
             d="m 0,0 3.127,-403.148 -60.128,-0.466 c -27.181,41.24 -47.753,105.923 -41.805,178.391 5.747,69.956 27.327,123.045 49.266,160.507 C -29.316,-30.218 -8.791,-8.969 0,0"
             style="fill:#eff4f9;fill-opacity:1;fill-rule:nonzero;stroke:none"
             id="path38" /></g><g
           id="g40"
           transform="translate(679.6392,632.9512)"><path
             d="m 0,0 c 8.909,-8.821 29.721,-29.701 50.436,-63.801 22.56,-37.126 44.999,-89.924 51.842,-159.863 7.071,-72.316 -12.465,-137.271 -38.963,-178.937 l -60.188,-0.467 z"
             style="fill:#eff4f9;fill-opacity:1;fill-rule:nonzero;stroke:none"
             id="path42" /></g><g
           id="g44"
           transform="translate(679.6387,633.0312)"><path
             d="M 0,0 V -0.08 C 8.909,-8.901 29.722,-29.781 50.437,-63.881 35.864,-72.654 18.834,-77.756 0.604,-77.918 h -0.1 C -17.725,-78.06 -34.833,-73.243 -49.54,-64.716 -29.316,-30.218 -8.791,-8.969 0,0"
             style="fill:#f40c23;fill-opacity:1;fill-rule:nonzero;stroke:none"
             id="path46" /></g><g
           id="g48"
           transform="translate(681.3799,460.1196)"><path
             d="m 0,0 c 24.3,0.188 44.151,-19.358 44.34,-43.658 0.188,-24.3 -19.358,-44.151 -43.657,-44.34 -24.3,-0.188 -44.152,19.358 -44.34,43.658 C -43.846,-20.041 -24.3,-0.189 0,0"
             style="fill:#293443;fill-opacity:1;fill-rule:nonzero;stroke:none"
             id="path50" /></g><g
           id="g52"
           transform="translate(682.3032,341.123)"><path
             d="M 0,0 C 16.568,0.129 30.103,-13.198 30.232,-29.767 30.36,-46.335 17.034,-59.87 0.465,-59.998 -16.103,-60.127 -29.638,-46.8 -29.767,-30.231 -29.895,-13.664 -16.568,-0.129 0,0"
             style="fill:#293443;fill-opacity:1;fill-rule:nonzero;stroke:none"
             id="path54" /></g><g
           id="g56"
           transform="translate(609.4863,471.9189)"><path
             d="m 0,0 c -15.948,-47.515 -23.562,-87.818 -17.005,-90.019 6.556,-2.2 24.799,34.535 40.748,82.05 C 39.69,39.546 47.304,79.849 40.748,82.05 34.191,84.25 15.948,47.516 0,0"
             style="fill:#ffffff;fill-opacity:1;fill-rule:nonzero;stroke:none"
             id="path58" /></g><g
           id="g60"
           transform="translate(655.9917,515.5732)"><path
             d="m 0,0 c -3.94,-16.856 -4.856,-31.053 -2.048,-31.709 2.809,-0.657 8.28,12.476 12.22,29.332 3.94,16.856 4.856,31.052 2.048,31.709 C 9.411,29.989 3.939,16.856 0,0"
             style="fill:#ffffff;fill-opacity:1;fill-rule:nonzero;stroke:none"
             id="path62" /></g></g></g></g></svg>
