<?xml version="1.0" encoding="UTF-8" standalone="no"?>
<svg
   xmlns:dc="http://purl.org/dc/elements/1.1/"
   xmlns:cc="http://creativecommons.org/ns#"
   xmlns:rdf="http://www.w3.org/1999/02/22-rdf-syntax-ns#"
   xmlns:svg="http://www.w3.org/2000/svg"
   xmlns="http://www.w3.org/2000/svg"
   xmlns:sodipodi="http://sodipodi.sourceforge.net/DTD/sodipodi-0.dtd"
   xmlns:inkscape="http://www.inkscape.org/namespaces/inkscape"
   version="1.1"
   id="svg2"
   xml:space="preserve"
   width="1821.3333"
   height="1024"
   viewBox="0 0 1821.3333 1024"
   sodipodi:docname="raketa (6).ai"><metadata
     id="metadata8"><rdf:RDF><cc:Work
         rdf:about=""><dc:format>image/svg+xml</dc:format><dc:type
           rdf:resource="http://purl.org/dc/dcmitype/StillImage" /></cc:Work></rdf:RDF></metadata><defs
     id="defs6"><clipPath
       clipPathUnits="userSpaceOnUse"
       id="clipPath18"><path
         d="M 0,768 H 1366 V 0 H 0 Z"
         id="path16" /></clipPath></defs><sodipodi:namedview
     pagecolor="#ffffff"
     bordercolor="#666666"
     borderopacity="1"
     objecttolerance="10"
     gridtolerance="10"
     guidetolerance="10"
     inkscape:pageopacity="0"
     inkscape:pageshadow="2"
     inkscape:window-width="640"
     inkscape:window-height="480"
     id="namedview4" /><g
     id="g10"
     inkscape:groupmode="layer"
     inkscape:label="raketa (6)"
     transform="matrix(1.3333333,0,0,-1.3333333,0,1024)"><g
       id="g12"><g
         id="g14"
         clip-path="url(#clipPath18)"><g
           id="g20"
           transform="translate(528.5439,301.6816)"><path
             d="m 0,0 c 0,-39.76 -30.963,-71.682 -56.269,-71.682 -25.304,0 -58.68,31.922 -58.68,71.682 0,39.759 33.376,72.299 58.68,72.299 C -30.963,72.299 0,39.759 0,0"
             style="fill:#f4c83b;fill-opacity:1;fill-rule:nonzero;stroke:none"
             id="path22" /></g><g
           id="g24"
           transform="translate(528.5439,301.6816)"><path
             d="m 0,0 c 0,-39.76 -30.963,-71.682 -56.269,-71.682 -25.304,0 -58.68,31.922 -58.68,71.682 0,39.759 33.376,72.299 58.68,72.299 C -30.963,72.299 0,39.759 0,0 Z"
             style="fill:none;stroke:#000000;stroke-width:11;stroke-linecap:butt;stroke-linejoin:miter;stroke-miterlimit:10;stroke-dasharray:none;stroke-opacity:1"
             id="path26" /></g><g
           id="g28"
           transform="translate(509.7573,302.0322)"><path
             d="m 0,0 c 0,-27.311 -21.27,-49.239 -38.652,-49.239 -17.383,0 -40.308,21.928 -40.308,49.239 0,27.312 22.925,49.664 40.308,49.664 C -21.27,49.664 0,27.312 0,0"
             style="fill:#f26b3d;fill-opacity:1;fill-rule:nonzero;stroke:none"
             id="path30" /></g><g
           id="g32"
           transform="translate(509.7573,302.0322)"><path
             d="m 0,0 c 0,-27.311 -21.27,-49.239 -38.652,-49.239 -17.383,0 -40.308,21.928 -40.308,49.239 0,27.312 22.925,49.664 40.308,49.664 C -21.27,49.664 0,27.312 0,0 Z"
             style="fill:none;stroke:#000000;stroke-width:5;stroke-linecap:butt;stroke-linejoin:miter;stroke-miterlimit:10;stroke-dasharray:none;stroke-opacity:1"
             id="path34" /></g><g
           id="g36"
           transform="translate(357.4194,405.1543)"><path
             d="m 0,0 c -39.621,-44.206 -57.183,-96.894 -35.198,-97.6 14.715,-0.472 92.78,-21.939 100.638,68.595 C 70.089,24.56 115.377,75.4 95.877,69.706 67.435,61.4 32.402,36.153 0,0"
             style="fill:#b4bac1;fill-opacity:1;fill-rule:nonzero;stroke:none"
             id="path38" /></g><g
           id="g40"
           transform="translate(357.4194,405.1543)"><path
             d="m 0,0 c -39.621,-44.206 -57.183,-96.894 -35.198,-97.6 14.715,-0.472 92.78,-21.939 100.638,68.595 C 70.089,24.56 115.377,75.4 95.877,69.706 67.435,61.4 32.402,36.153 0,0 Z"
             style="fill:none;stroke:#000000;stroke-width:11;stroke-linecap:butt;stroke-linejoin:miter;stroke-miterlimit:10;stroke-dasharray:none;stroke-opacity:1"
             id="path42" /></g><g
           id="g44"
           transform="translate(587.2202,405.1543)"><path
             d="M 0,0 C 39.621,-44.206 57.183,-96.894 35.198,-97.6 20.483,-98.072 -57.582,-119.539 -65.439,-29.005 -70.089,24.56 -115.377,75.4 -95.877,69.706 -67.434,61.4 -32.402,36.153 0,0"
             style="fill:#b4bac1;fill-opacity:1;fill-rule:nonzero;stroke:none"
             id="path46" /></g><g
           id="g48"
           transform="translate(587.2202,405.1543)"><path
             d="M 0,0 C 39.621,-44.206 57.183,-96.894 35.198,-97.6 20.483,-98.072 -57.582,-119.539 -65.439,-29.005 -70.089,24.56 -115.377,75.4 -95.877,69.706 -67.434,61.4 -32.402,36.153 0,0 Z"
             style="fill:none;stroke:#000000;stroke-width:11;stroke-linecap:butt;stroke-linejoin:miter;stroke-miterlimit:10;stroke-dasharray:none;stroke-opacity:1"
             id="path50" /></g><g
           id="g52"
           transform="translate(399.543,315.5244)"><path
             d="m 0,0 c -27.907,33.963 -40.343,86.383 -34.152,144.351 5.197,48.601 22.976,93.121 52.844,132.324 19.689,25.825 39.678,42.675 49.868,50.8 10.309,-7.969 30.672,-24.585 50.895,-50.17 30.709,-38.871 49.42,-83.222 55.611,-131.82 3.696,-29.065 2.305,-56.993 -4.134,-83.008 C 165.075,38.812 155.033,17.604 141.827,0.966 L 71.956,0.692 Z"
             style="fill:#f9f9f9;fill-opacity:1;fill-rule:nonzero;stroke:none"
             id="path54" /></g><g
           id="g56"
           transform="translate(468.0942,650)"><path
             d="m 0,0 c -9.623,-7.549 -32.098,-25.433 -54.234,-54.467 -24.018,-31.526 -47.643,-76.205 -53.938,-135.074 -6.514,-60.989 7.322,-115.752 37.078,-150.459 l 74.52,0.717 72.48,0.283 c 29.011,35.068 43.804,89.842 36.065,150.705 -7.499,58.86 -32.065,103.287 -56.752,134.535 C 32.536,-25.062 9.754,-7.49 0,-0.067 Z m 0.062,-14.03 c 10.815,-8.595 28.737,-24.043 46.525,-46.549 30.081,-38.076 48.408,-81.514 54.472,-129.104 3.61,-28.39 2.258,-55.64 -4.017,-80.995 -5.428,-21.93 -14.538,-41.64 -26.467,-57.343 L 3.383,-328.283 H 3.352 3.321 l -69.257,-0.667 c -25.822,32.874 -37.21,82.888 -31.298,138.24 5.088,47.588 22.5,91.184 51.748,129.574 17.315,22.711 34.886,38.361 45.548,47.106"
             style="fill:#000000;fill-opacity:1;fill-rule:nonzero;stroke:none"
             id="path58" /></g><g
           id="g60"
           transform="translate(468.4883,639.8066)"><path
             d="M 0,0 V -0.067 C 9.753,-7.491 32.538,-25.063 55.216,-53.761 39.263,-61.145 20.618,-65.438 0.662,-65.574 l -0.11,-0.001 c -19.956,-0.119 -38.685,3.935 -54.785,11.111 C -32.094,-25.431 -9.624,-7.548 0,0"
             style="fill:#f40c23;fill-opacity:1;fill-rule:nonzero;stroke:none"
             id="path62" /></g><g
           id="g64"
           transform="translate(468.4883,639.8066)"><path
             d="M 0,0 V -0.067 C 9.753,-7.491 32.538,-25.063 55.216,-53.761 39.263,-61.145 20.618,-65.438 0.662,-65.574 l -0.11,-0.001 c -19.956,-0.119 -38.685,3.935 -54.785,11.111 C -32.094,-25.431 -9.624,-7.548 0,0 Z"
             style="fill:none;stroke:#000000;stroke-width:9;stroke-linecap:butt;stroke-linejoin:miter;stroke-miterlimit:10;stroke-dasharray:none;stroke-opacity:1"
             id="path66" /></g><g
           id="g68"
           transform="translate(468.3145,500.2314)"><path
             d="M 0,0 C 28.354,0.221 51.518,-22.708 51.737,-51.215 51.958,-79.721 29.15,-103.009 0.796,-103.23 -27.558,-103.451 -50.721,-80.521 -50.941,-52.016 -51.161,-23.509 -28.354,-0.221 0,0"
             style="fill:#293443;fill-opacity:1;fill-rule:nonzero;stroke:none"
             id="path70" /></g><g
           id="g72"
           transform="translate(468.3145,500.2314)"><path
             d="M 0,0 C 28.354,0.221 51.518,-22.708 51.737,-51.215 51.958,-79.721 29.15,-103.009 0.796,-103.23 -27.558,-103.451 -50.721,-80.521 -50.941,-52.016 -51.161,-23.509 -28.354,-0.221 0,0 Z"
             style="fill:none;stroke:#000000;stroke-width:10;stroke-linecap:butt;stroke-linejoin:miter;stroke-miterlimit:10;stroke-dasharray:none;stroke-opacity:1"
             id="path74" /></g></g></g></g></svg>
